<?xml version="1.0" encoding="UTF-8" standalone="no"?>
<svg width="70px" height="70px" viewBox="0 0 70 70" version="1.1" xmlns="http://www.w3.org/2000/svg" xmlns:xlink="http://www.w3.org/1999/xlink">
    <!-- Generator: Sketch 39.1 (31720) - http://www.bohemiancoding.com/sketch -->
    <title>link</title>
    <desc>Created with Sketch.</desc>
    <defs></defs>
    <g id="Page-1" stroke="none" stroke-width="1" fill="none" fill-rule="evenodd">
        <g id="link" fill="#4A4A4A">
            <path d="M33,41 L33,48 L24.0028339,48 C16.821567,48 11,42.1812804 11,35 C11,27.8202983 16.8112014,22 24.0028339,22 L33,22 L33,29 L24.0075906,29 C20.6845668,29 18,31.6862915 18,35 C18,38.3069658 20.6896899,41 24.0075906,41 L33,41 Z" id="Combined-Shape"></path>
            <path d="M60,41 L60,48 L51.0028339,48 C43.821567,48 38,42.1812804 38,35 C38,27.8202983 43.8112014,22 51.0028339,22 L60,22 L60,29 L51.0075906,29 C47.6845668,29 45,31.6862915 45,35 C45,38.3069658 47.6896899,41 51.0075906,41 L60,41 Z" id="Combined-Shape" transform="translate(49.000000, 35.000000) rotate(180.000000) translate(-49.000000, -35.000000) "></path>
            <rect id="Rectangle" transform="translate(35.000000, 35.000000) scale(1, -1) translate(-35.000000, -35.000000) " x="25" y="31" width="20" height="8" rx="4"></rect>
        </g>
    </g>
</svg>