<?xml version="1.0" encoding="UTF-8" standalone="no"?>
<svg width="70px" height="70px" viewBox="0 0 70 70" version="1.1" xmlns="http://www.w3.org/2000/svg" xmlns:xlink="http://www.w3.org/1999/xlink">
    <!-- Generator: Sketch 39.1 (31720) - http://www.bohemiancoding.com/sketch -->
    <title>unlink</title>
    <desc>Created with Sketch.</desc>
    <defs></defs>
    <g id="Page-1" stroke="none" stroke-width="1" fill="none" fill-rule="evenodd">
        <g id="unlink" fill="#4A4A4A">
            <path d="M33,41 L33,48 L24.0028339,48 C16.821567,48 11,42.1812804 11,35 C11,27.8202983 16.8219931,22 23.9989537,22 L32.7787405,22 L33,22 L33,29 L24.0075906,29 C20.6845668,29 18,31.6862915 18,35 C18,38.3069658 20.6896899,41 24.0075906,41 L33,41 Z" id="Combined-Shape"></path>
            <path d="M60,41 L60,48 L51.0028339,48 C43.821567,48 38,42.1812804 38,35 C38,27.8202983 43.8112014,22 51.0028339,22 L60,22 L60,29 L51.0075906,29 C47.6845668,29 45,31.6862915 45,35 C45,38.3069658 47.6896899,41 51.0075906,41 L60,41 Z" id="Combined-Shape" transform="translate(49.000000, 35.000000) rotate(180.000000) translate(-49.000000, -35.000000) "></path>
            <rect id="Rectangle" transform="translate(35.000000, 35.000000) scale(1, -1) translate(-35.000000, -35.000000) " x="25" y="31" width="20" height="8" rx="4"></rect>
            <rect id="Rectangle" transform="translate(42.992641, 13.992641) scale(1, -1) rotate(45.000000) translate(-42.992641, -13.992641) " x="36.9423882" y="11.5680195" width="12.1005051" height="4.8492424" rx="2.4246212"></rect>
            <rect id="Rectangle" transform="translate(27.992641, 13.992641) scale(1, -1) rotate(-45.000000) translate(-27.992641, -13.992641) " x="21.9423882" y="11.5680195" width="12.1005051" height="4.8492424" rx="2.4246212"></rect>
            <path d="M38.7720779,60.2708153 C39.7189514,61.2176888 41.2609539,61.2108715 42.1974844,60.274341 L47.3319528,55.1398726 C48.2768791,54.1949463 48.281902,52.667941 47.3284271,51.7144661 L47.3284271,51.7144661 C46.3815536,50.7675926 44.8395511,50.7744099 43.9030206,51.7109404 L38.7685522,56.8454088 C37.823626,57.7903351 37.818603,59.3173404 38.7720779,60.2708153 L38.7720779,60.2708153 L38.7720779,60.2708153 Z" id="Rectangle" transform="translate(43.050253, 55.992641) scale(1, -1) rotate(180.000000) translate(-43.050253, -55.992641) "></path>
            <path d="M23.7720779,51.7144661 C22.8252045,52.6613396 22.8320217,54.2033421 23.7685522,55.1398726 L28.9030206,60.274341 C29.8479469,61.2192673 31.3749522,61.2242902 32.3284271,60.2708153 L32.3284271,60.2708153 C33.2753006,59.3239418 33.2684833,57.7819393 32.3319528,56.8454088 L27.1974844,51.7109404 C26.2525581,50.7660141 24.7255528,50.7609912 23.7720779,51.7144661 L23.7720779,51.7144661 L23.7720779,51.7144661 Z" id="Rectangle" transform="translate(28.050253, 55.992641) scale(1, -1) rotate(180.000000) translate(-28.050253, -55.992641) "></path>
        </g>
    </g>
</svg>