<?xml version="1.0" encoding="UTF-8" standalone="no"?>
<svg
   xmlns:dc="http://purl.org/dc/elements/1.1/"
   xmlns:cc="http://creativecommons.org/ns#"
   xmlns:rdf="http://www.w3.org/1999/02/22-rdf-syntax-ns#"
   xmlns:svg="http://www.w3.org/2000/svg"
   xmlns="http://www.w3.org/2000/svg"
   xmlns:sodipodi="http://sodipodi.sourceforge.net/DTD/sodipodi-0.dtd"
   xmlns:inkscape="http://www.inkscape.org/namespaces/inkscape"
   fill="#000000"
   height="24"
   viewBox="0 0 24 24"
   width="24"
   id="svg2"
   version="1.1"
   inkscape:version="0.91 r13725"
   sodipodi:docname="unlink.svg">
  <metadata
     id="metadata12">
    <rdf:RDF>
      <cc:Work
         rdf:about="">
        <dc:format>image/svg+xml</dc:format>
        <dc:type
           rdf:resource="http://purl.org/dc/dcmitype/StillImage" />
      </cc:Work>
    </rdf:RDF>
  </metadata>
  <defs
     id="defs10" />
  <sodipodi:namedview
     pagecolor="#ffffff"
     bordercolor="#666666"
     borderopacity="1"
     objecttolerance="10"
     gridtolerance="10"
     guidetolerance="10"
     inkscape:pageopacity="0"
     inkscape:pageshadow="2"
     inkscape:window-width="1855"
     inkscape:window-height="1056"
     id="namedview8"
     showgrid="false"
     inkscape:zoom="19.666667"
     inkscape:cx="11.279826"
     inkscape:cy="19.259905"
     inkscape:window-x="65"
     inkscape:window-y="24"
     inkscape:window-maximized="1"
     inkscape:current-layer="svg2" />
  <path
     d="M0 0h24v24H0z"
     fill="none"
     id="path4" />
  <path
     d="M3.9 12c0-1.71 1.39-3.1 3.1-3.1h4V7H7c-2.76 0-5 2.24-5 5s2.24 5 5 5h4v-1.9H7c-1.71 0-3.1-1.39-3.1-3.1zM8 13h8v-2H8v2zm9-6h-4v1.9h4c1.71 0 3.1 1.39 3.1 3.1s-1.39 3.1-3.1 3.1h-4V17h4c2.76 0 5-2.24 5-5s-2.24-5-5-5z"
     id="path6" />
  <rect
     style="opacity:1;fill:#000000;fill-opacity:1;stroke:none;stroke-width:13.39999962;stroke-miterlimit:4;stroke-dasharray:13.4, 26.8;stroke-dashoffset:0;stroke-opacity:1"
     id="rect3345"
     width="3.5906577"
     height="0.91984183"
     x="-12.047922"
     y="3.8907707"
     transform="matrix(-0.63769055,-0.77029265,0.77029265,-0.63769055,0,0)" />
  <rect
     style="opacity:1;fill:#ffffff;fill-opacity:1;stroke:none;stroke-width:13.39999962;stroke-miterlimit:4;stroke-dasharray:13.4, 26.8;stroke-dashoffset:0;stroke-opacity:1"
     id="rect3347"
     width="0.1977502"
     height="0.035954583"
     x="13.950377"
     y="12.602398" />
  <rect
     style="opacity:1;fill:#000000;fill-opacity:1;stroke:none;stroke-width:13.39999962;stroke-miterlimit:4;stroke-dasharray:13.4, 26.8;stroke-dashoffset:0;stroke-opacity:1"
     id="rect3345-3"
     width="3.5906577"
     height="0.91984183"
     x="5.7671146"
     y="12.732558"
     transform="matrix(0.77029265,-0.63769055,0.63769055,0.77029265,0,0)" />
  <rect
     style="opacity:1;fill:#000000;fill-opacity:1;stroke:none;stroke-width:13.39999962;stroke-miterlimit:4;stroke-dasharray:13.4, 26.8;stroke-dashoffset:0;stroke-opacity:1"
     id="rect3345-6"
     width="3.5906577"
     height="0.91984183"
     x="-6.189651"
     y="11.407792"
     transform="matrix(-0.02475926,-0.99969344,0.99969344,-0.02475926,0,0)" />
  <rect
     style="opacity:1;fill:#000000;fill-opacity:1;stroke:none;stroke-width:13.39999962;stroke-miterlimit:4;stroke-dasharray:13.4, 26.8;stroke-dashoffset:0;stroke-opacity:1"
     id="rect3345-7"
     width="3.5906577"
     height="0.91984183"
     x="3.0459352"
     y="-20.939304"
     transform="matrix(-0.77029265,0.63769055,-0.63769055,-0.77029265,0,0)" />
  <rect
     style="opacity:1;fill:#000000;fill-opacity:1;stroke:none;stroke-width:13.39999962;stroke-miterlimit:4;stroke-dasharray:13.4, 26.8;stroke-dashoffset:0;stroke-opacity:1"
     id="rect3345-3-5"
     width="3.5906577"
     height="0.91984183"
     x="-25.682032"
     y="-1.6842742"
     transform="matrix(-0.63769055,-0.77029265,0.77029265,-0.63769055,0,0)" />
  <rect
     style="opacity:1;fill:#000000;fill-opacity:1;stroke:none;stroke-width:13.39999962;stroke-miterlimit:4;stroke-dasharray:13.4, 26.8;stroke-dashoffset:0;stroke-opacity:1"
     id="rect3345-6-3"
     width="3.5906577"
     height="0.91984183"
     x="17.706495"
     y="-11.953821"
     transform="matrix(0.02475926,0.99969344,-0.99969344,0.02475926,0,0)" />
</svg>
